<svg width="81" height="151" viewBox="0 0 81 151" fill="none" xmlns="http://www.w3.org/2000/svg">
<g clip-path="url(#clip0_2468_141)">
<mask id="path-1-inside-1_2468_141" fill="white">
<path d="M6.20392 0C10.8558 0 14 5.34811 14 10V10V45C14 56.0457 22.9543 65 34 65H71C76.5228 65 81 69.4772 81 75V131C81 142.046 72.0457 151 61 151H-548C-559.046 151 -568 142.046 -568 131V20C-568 8.95431 -559.046 0 -548 0H6.20392Z"/>
</mask>
<path d="M14 45L13 45V45L14 45ZM34 65L34 66H34V65ZM81 131L82 131V131H81ZM-568 20L-569 20V20H-568ZM14 10H13V45H14H15V10H14ZM14 45L13 45C13 56.598 22.402 66 34 66L34 65L34 64C23.5066 64 15 55.4934 15 45L14 45ZM34 65V66H71V65V64H34V65ZM81 75H80V131H81H82V75H81ZM81 131L80 131C80 141.493 71.4934 150 61 150V151V152C72.598 152 82 142.598 82 131L81 131ZM61 151V150H-548V151V152H61V151ZM-548 151V150C-558.493 150 -567 141.493 -567 131H-568H-569C-569 142.598 -559.598 152 -548 152V151ZM-568 131H-567V20H-568H-569V131H-568ZM-568 20L-567 20C-567 9.50659 -558.493 1 -548 1V0V-1C-559.598 -1 -569 8.40202 -569 20L-568 20ZM-548 0V1H6.20392V0V-1H-548V0ZM71 65V66C75.9706 66 80 70.0294 80 75H81H82C82 68.9249 77.0751 64 71 64V65ZM14 10H15C15 7.46843 14.1505 4.76506 12.6607 2.6751C11.1689 0.5822 8.94873 -1 6.20392 -1V0V1C8.111 1 9.78889 2.09185 11.0321 3.83598C12.2774 5.58305 13 7.87967 13 10H14Z" fill="white" mask="url(#path-1-inside-1_2468_141)"/>
</g>
<defs>
<clipPath id="clip0_2468_141">
<rect width="81" height="151" fill="white"/>
</clipPath>
</defs>
</svg>
